# xmcd
#
# Track frame offsets:
#	150
#	13806
#	31872
#	47816
#	60998
#	73743
#	84396
#	96779
#	111017
#
# Disc length: 1732 seconds
#
# Revision: 0
# Processed by: cddbd v1.4PL0 Copyright (c) Steve Scherf et al.
# Submitted via: dBpowerAMP V4.0
#
DISCID=6b06c209
DTITLE=Hayseed Dixie - Tribute to AC/DC
DYEAR=2001
DGENRE=Bluegrass
TTITLE0=1
TTITLE1=2
TTITLE2=3
TTITLE3=4
TTITLE4=5
TTITLE5=6
TTITLE6=7
TTITLE7=8
TTITLE8=9
EXTD=Hayseed Dixie
EXTT0=
EXTT1=
EXTT2=
EXTT3=
EXTT4=
EXTT5=
EXTT6=
EXTT7=
EXTT8=
PLAYORDER=
